<svg width="74" height="74" viewBox="0 0 74 74" fill="none" xmlns="http://www.w3.org/2000/svg">
<g clip-path="url(#clip0)">
<path d="M36.5 0C15.7896 0 -1 16.5658 -1 37C-1 57.4342 15.7896 74 36.5 74C57.2104 74 74 57.4342 74 37C73.9766 16.5757 57.2003 0.023125 36.5 0ZM36.5 71.5339C17.1708 71.5339 1.49944 56.0732 1.49944 37C1.49944 17.9268 17.1708 2.46612 36.5 2.46612C55.8292 2.46612 71.5006 17.9285 71.5006 37C71.4788 56.0633 55.8209 71.5124 36.5 71.5339Z" fill="#B7A57A"/>
<path d="M53.2141 41.511L42.7451 39.661C42.2149 39.5669 41.6863 39.8279 41.4369 40.3052L38.8981 45.1697C34.4069 43.181 30.8175 39.59 28.8305 35.0971L33.69 32.5584C34.1674 32.3089 34.4267 31.7804 34.3342 31.2501L32.4842 20.7828C32.4264 20.4541 32.2381 20.1617 31.9606 19.975C29.3144 18.1895 25.8985 18.0111 23.0789 19.5092C20.2593 21.0074 18.4985 23.941 18.4985 27.1322C18.5167 42.7912 31.2057 55.4818 46.8646 55.4984C50.0575 55.4984 52.9895 53.7359 54.4876 50.9163C55.9858 48.0967 55.8041 44.6792 54.0169 42.033C53.8335 41.7588 53.5428 41.5688 53.2141 41.511ZM46.8663 53.0339C32.5684 53.0174 20.9828 41.4317 20.9663 27.1339C20.9663 24.9436 22.1275 22.9169 24.0188 21.8102C25.9101 20.7035 28.2457 20.6837 30.1552 21.759L31.7492 30.7942L26.693 33.4338C26.1397 33.7229 25.8886 34.3803 26.11 34.965C28.3646 40.9296 33.0722 45.6388 39.0352 47.8968C39.6199 48.1182 40.2773 47.8671 40.5664 47.3138L43.2076 42.2576L52.2429 43.8533C53.3149 45.7627 53.2934 48.0967 52.1867 49.9863C51.0817 51.871 49.0566 53.0322 46.8663 53.0339Z" fill="#B7A57A"/>
</g>
<defs>
<clipPath id="clip0">
<rect width="74" height="74" fill="white"/>
</clipPath>
</defs>
</svg>
