<svg width="38" height="38" viewBox="0 0 38 38" fill="none" xmlns="http://www.w3.org/2000/svg">
<circle cx="19" cy="19" r="18.5" stroke="#B7A57A"/>
<path d="M11.5254 20.4336V26H9.65039V11.7812H14.8945C16.4505 11.7812 17.668 12.1784 18.5469 12.9727C19.4323 13.7669 19.875 14.8184 19.875 16.127C19.875 17.5072 19.4421 18.5716 18.5762 19.3203C17.7168 20.0625 16.4831 20.4336 14.875 20.4336H11.5254ZM11.5254 18.9004H14.8945C15.8971 18.9004 16.6654 18.666 17.1992 18.1973C17.7331 17.722 18 17.0384 18 16.1465C18 15.3001 17.7331 14.623 17.1992 14.1152C16.6654 13.6074 15.9329 13.3438 15.002 13.3242H11.5254V18.9004ZM25.5977 23.3535L28.0586 15.4336H29.9922L25.7441 27.6309C25.0866 29.3887 24.0417 30.2676 22.6094 30.2676L22.2676 30.2383L21.5938 30.1113V28.6465L22.082 28.6855C22.694 28.6855 23.1693 28.5618 23.5078 28.3145C23.8529 28.0671 24.1361 27.6146 24.3574 26.957L24.7578 25.8828L20.9883 15.4336H22.9609L25.5977 23.3535Z" fill="#B7A57A"/>
</svg>
