<svg width="38" height="38" viewBox="0 0 38 38" fill="none" xmlns="http://www.w3.org/2000/svg">
<path d="M25.2712 17.1356C25.2712 21.6287 21.6287 25.2712 17.1356 25.2712C12.6424 25.2712 9 21.6287 9 17.1356C9 12.6424 12.6424 9 17.1356 9C21.6287 9 25.2712 12.6424 25.2712 17.1356ZM11.3484 17.1356C11.3484 20.3317 13.9394 22.9228 17.1356 22.9228C20.3317 22.9228 22.9228 20.3317 22.9228 17.1356C22.9228 13.9394 20.3317 11.3484 17.1356 11.3484C13.9394 11.3484 11.3484 13.9394 11.3484 17.1356Z" fill="#B7A57A"/>
<rect x="20.2646" y="22.9197" width="3.75488" height="10.013" rx="1" transform="rotate(-45 20.2646 22.9197)" fill="#B7A57A"/>
<circle cx="19" cy="19" r="18.5" stroke="#B7A57A"/>
</svg>
