<svg width="38" height="38" viewBox="0 0 38 38" fill="none" xmlns="http://www.w3.org/2000/svg">
<circle cx="19" cy="19" r="19" fill="#B7A57A"/>
<path d="M14.5332 21.0332L17.8047 12.7812H19.9824L14.9531 24.627C14.6146 25.3822 14.2988 25.9193 14.0059 26.2383C13.7129 26.5508 13.3678 26.7917 12.9707 26.9609C12.5801 27.1237 12.0885 27.2051 11.4961 27.2051C10.9818 27.2051 10.653 27.1758 10.5098 27.1172L10.5684 25.6328L11.457 25.6719C12.1406 25.6719 12.6484 25.3431 12.9805 24.6855L13.2246 24.1777L13.5957 23.3086L8.75195 12.7812H10.8516L14.5332 21.0332ZM17.2383 9.24609C17.2383 10.0339 16.9681 10.6686 16.4277 11.1504C15.8939 11.6257 15.1908 11.8633 14.3184 11.8633C13.446 11.8633 12.7396 11.6224 12.1992 11.1406C11.6589 10.6589 11.3887 10.0273 11.3887 9.24609H12.8633C12.8633 9.70182 12.987 10.0599 13.2344 10.3203C13.4818 10.5742 13.8431 10.7012 14.3184 10.7012C14.7741 10.7012 15.1289 10.5742 15.3828 10.3203C15.6432 10.0664 15.7734 9.70833 15.7734 9.24609H17.2383ZM27.3457 19.3242C27.3457 18.8294 27.1569 18.4388 26.7793 18.1523C26.4017 17.8594 25.8841 17.7129 25.2266 17.7129C24.5885 17.7129 24.0547 17.8789 23.625 18.2109C23.2018 18.543 22.9902 18.9336 22.9902 19.3828H21.1934C21.1934 18.4648 21.5775 17.7129 22.3457 17.127C23.1139 16.541 24.0742 16.248 25.2266 16.248C26.4635 16.248 27.4271 16.515 28.1172 17.0488C28.8073 17.5762 29.1523 18.3314 29.1523 19.3145C29.1523 19.7897 29.0091 20.2259 28.7227 20.623C28.4362 21.0202 28.0293 21.3359 27.502 21.5703C28.7324 21.987 29.3477 22.8073 29.3477 24.0312C29.3477 25.0013 28.9733 25.7695 28.2246 26.3359C27.4759 26.9023 26.4766 27.1855 25.2266 27.1855C24.0091 27.1855 23.0033 26.8893 22.209 26.2969C21.4212 25.6979 21.0273 24.8906 21.0273 23.875H22.8242C22.8242 24.3893 23.0521 24.832 23.5078 25.2031C23.9701 25.5677 24.543 25.75 25.2266 25.75C25.9167 25.75 26.4733 25.5905 26.8965 25.2715C27.3197 24.9525 27.5312 24.5391 27.5312 24.0312C27.5312 23.4388 27.3522 23.0156 26.9941 22.7617C26.6426 22.5013 26.0924 22.3711 25.3438 22.3711H23.5371V20.8477H25.5C26.7305 20.8151 27.3457 20.3073 27.3457 19.3242Z" fill="white"/>
</svg>
